<svg fill="#fff" viewBox="0 0 512 512" xmlns="http://www.w3.org/2000/svg">
  <path d="M256 0C114.833 0 0 114.844 0 256s114.833 256 256 256 256-114.844 256-256S397.167 0 256 0zm0 490.667C126.604 490.667 21.333 385.396 21.333 256S126.604 21.333 256 21.333 490.667 126.604 490.667 256 385.396 490.667 256 490.667z"/>
  <path d="M357.771 247.031l-149.333-96c-3.271-2.135-7.5-2.25-10.875-.396C194.125 152.51 192 156.094 192 160v192c0 3.906 2.125 7.49 5.563 9.365 1.583.865 3.354 1.302 5.104 1.302 2 0 4.021-.563 5.771-1.698l149.333-96c3.042-1.958 4.896-5.344 4.896-8.969s-1.854-7.01-4.896-8.969zm-144.438 85.427V179.542L332.271 256l-118.938 76.458z"/>
</svg>
